<?xml version="1.0" encoding="UTF-8"?>
<svg id="Layer_1" data-name="Layer 1" xmlns="http://www.w3.org/2000/svg" xmlns:xlink="http://www.w3.org/1999/xlink" viewBox="0 0 615.79 180.61">
  <defs>
    <style>
      .cls-1 {
        fill: url(#linear-gradient-2);
      }

      .cls-2 {
        fill: url(#linear-gradient-6);
      }

      .cls-3 {
        fill: url(#linear-gradient-11);
      }

      .cls-4 {
        fill: url(#linear-gradient-10);
      }

      .cls-5 {
        fill: url(#linear-gradient-5);
      }

      .cls-6 {
        fill: url(#linear-gradient-7);
      }

      .cls-7 {
        fill: url(#linear-gradient-9);
      }

      .cls-8 {
        fill: url(#linear-gradient-3);
      }

      .cls-9 {
        fill: url(#linear-gradient);
      }

      .cls-10 {
        fill: url(#linear-gradient-4);
      }

      .cls-11 {
        fill: url(#linear-gradient-8);
      }

      .cls-12 {
        fill: url(#linear-gradient-12);
      }
    </style>
    <linearGradient id="linear-gradient" x1="50.98" y1="34.2" x2="145.76" y2="128.97" gradientUnits="userSpaceOnUse">
      <stop offset="0" stop-color="#74fdfb"/>
      <stop offset="1" stop-color="#497cfe"/>
    </linearGradient>
    <linearGradient id="linear-gradient-2" x1="50.59" y1="34.59" x2="145.37" y2="129.36" gradientUnits="userSpaceOnUse">
      <stop offset="0" stop-color="#74fdfb"/>
      <stop offset="1" stop-color="#497cfe"/>
    </linearGradient>
    <linearGradient id="linear-gradient-3" x1="67.32" y1="17.86" x2="162.1" y2="112.63" gradientUnits="userSpaceOnUse">
      <stop offset="0" stop-color="#74fdfb"/>
      <stop offset="1" stop-color="#497cfe"/>
    </linearGradient>
    <linearGradient id="linear-gradient-4" x1="15.22" y1="69.96" x2="109.99" y2="164.74" gradientUnits="userSpaceOnUse">
      <stop offset="0" stop-color="#74fdfb"/>
      <stop offset="1" stop-color="#497cfe"/>
    </linearGradient>
    <linearGradient id="linear-gradient-5" x1="1.01" y1="84.17" x2="95.79" y2="178.94" gradientUnits="userSpaceOnUse">
      <stop offset="0" stop-color="#74fdfb"/>
      <stop offset="1" stop-color="#497cfe"/>
    </linearGradient>
    <linearGradient id="linear-gradient-6" x1="-22.24" y1="107.42" x2="72.54" y2="202.19" gradientUnits="userSpaceOnUse">
      <stop offset="0" stop-color="#74fdfb"/>
      <stop offset="1" stop-color="#497cfe"/>
    </linearGradient>
    <linearGradient id="linear-gradient-7" x1="264.75" y1="154.25" x2="264.75" y2="50.42" gradientUnits="userSpaceOnUse">
      <stop offset=".16" stop-color="#497cfe"/>
      <stop offset="1" stop-color="#74fdfb"/>
    </linearGradient>
    <linearGradient id="linear-gradient-8" x1="555.78" y1="154.25" x2="555.78" y2="50.42" gradientUnits="userSpaceOnUse">
      <stop offset=".14" stop-color="#497cfe"/>
      <stop offset=".93" stop-color="#74fdfb"/>
    </linearGradient>
    <linearGradient id="linear-gradient-9" x1="360.92" y1="154.25" x2="360.92" y2="50.42" gradientUnits="userSpaceOnUse">
      <stop offset=".14" stop-color="#497cfe"/>
      <stop offset=".95" stop-color="#74fdfb"/>
    </linearGradient>
    <linearGradient id="linear-gradient-10" x1="381.81" y1="154.25" x2="381.81" y2="50.42" gradientUnits="userSpaceOnUse">
      <stop offset=".13" stop-color="#497cfe"/>
      <stop offset=".95" stop-color="#74fdfb"/>
    </linearGradient>
    <linearGradient id="linear-gradient-11" x1="450.03" y1="154.25" x2="450.03" y2="50.42" gradientUnits="userSpaceOnUse">
      <stop offset=".13" stop-color="#497cfe"/>
      <stop offset=".94" stop-color="#74fdfb"/>
    </linearGradient>
    <linearGradient id="linear-gradient-12" x1="470.92" y1="154.25" x2="470.92" y2="50.42" gradientUnits="userSpaceOnUse">
      <stop offset=".13" stop-color="#497cfe"/>
      <stop offset=".94" stop-color="#74fdfb"/>
    </linearGradient>
  </defs>
  <path class="cls-9" d="m50.95,17.49h58.15c40.15,0,72.82,32.67,72.82,72.82s-32.67,72.82-72.82,72.82h-23.88V28.13h-17.49v152.47h41.37c49.79,0,90.3-40.51,90.3-90.3S158.89,0,109.1,0H33.46v32.85h17.49v-15.37Z"/>
  <rect class="cls-1" x="99.16" y="50.89" width="17.49" height="82.03"/>
  <rect class="cls-8" x="132.62" y="72.93" width="17.49" height="37.94"/>
  <rect class="cls-10" x="33.46" y="50.89" width="17.49" height="92.13"/>
  <rect class="cls-5" y="73.78" width="17.49" height="36.24"/>
  <rect class="cls-2" x="33.46" y="163.12" width="17.49" height="17.49"/>
  <path class="cls-6" d="m285.94,68.85c-5.5-7.51-15.62-12.43-26.17-12.43-20.54,0-36.73,16.05-36.73,41.07s16.2,41.64,36.59,41.64c12.57,0,21.55-5.78,26.32-13.15v11.85h20.54V30.82h-20.54v38.03Zm-21.11,52.49c-10.84,0-21.11-8.67-21.11-23.85s10.28-23.29,21.11-23.29,21.26,8.39,21.26,23.57-10.12,23.57-21.26,23.57Z"/>
  <polygon class="cls-11" points="582.25 118.59 567.21 57.72 545.81 57.72 530.48 118.75 516.31 57.72 495.77 57.72 519.34 137.83 541.32 137.83 555.93 81.86 570.54 137.83 592.37 137.83 615.79 57.72 596.43 57.72 582.25 118.59"/>
  <path class="cls-7" d="m376.93,59.15c-3.94-1.5-8.26-2.41-12.9-2.64-.91-.06-1.83-.09-2.75-.09-23.71,0-40.2,16.05-40.2,41.35s15.79,40.23,37.83,41.29c.78.05,1.58.06,2.37.06h2.51v-.09c.08,0,.16,0,.23,0v-16.77h-5.12c-9.21-.8-16.34-7.32-17.29-18.41h58.57c.44-2.61.58-5.2.58-7.81,0-18.01-9.31-31.41-23.83-36.89Zm-35.17,31.11c1.59-10.99,9.26-17.21,18.94-17.21,1.14,0,2.25.08,3.33.23,5.47.78,10.1,3.5,12.9,7.68,1.73,2.56,2.78,5.7,2.87,9.29h-38.04Z"/>
  <rect class="cls-4" x="373.63" y="122.26" width="16.35" height="16.87"/>
  <path class="cls-3" d="m466.04,59.15c-3.94-1.5-8.26-2.41-12.9-2.64-.91-.06-1.83-.09-2.75-.09-23.71,0-40.2,16.05-40.2,41.35s15.79,40.23,37.83,41.29c.78.05,1.58.06,2.37.06h2.51v-.09c.08,0,.16,0,.23,0v-16.77h-5.12c-9.21-.8-16.34-7.32-17.29-18.41h58.57c.44-2.61.58-5.2.58-7.81,0-18.01-9.31-31.41-23.83-36.89Zm-35.17,31.11c1.59-10.99,9.26-17.21,18.94-17.21,1.14,0,2.25.08,3.33.23,5.47.78,10.1,3.5,12.9,7.68,1.73,2.56,2.78,5.7,2.87,9.29h-38.04Z"/>
  <rect class="cls-12" x="462.74" y="122.26" width="16.35" height="16.87"/>
</svg>