<?xml version="1.0" encoding="UTF-8"?>
<svg id="Layer_1" data-name="Layer 1" xmlns="http://www.w3.org/2000/svg" xmlns:xlink="http://www.w3.org/1999/xlink" viewBox="0 0 624.69 188.55">
  <defs>
    <style>
      .cls-1 {
        fill: url(#linear-gradient-2);
      }

      .cls-2 {
        fill: url(#linear-gradient-6);
      }

      .cls-3 {
        fill: url(#linear-gradient-11);
      }

      .cls-4 {
        fill: url(#linear-gradient-10);
      }

      .cls-5 {
        fill: url(#linear-gradient-5);
      }

      .cls-6 {
        fill: none;
      }

      .cls-7 {
        fill: url(#linear-gradient-7);
      }

      .cls-8 {
        fill: url(#linear-gradient-9);
      }

      .cls-9 {
        fill: url(#linear-gradient-3);
      }

      .cls-10 {
        fill: url(#linear-gradient);
      }

      .cls-11 {
        fill: url(#linear-gradient-4);
      }

      .cls-12 {
        fill: url(#linear-gradient-8);
      }

      .cls-13 {
        fill: url(#linear-gradient-12);
      }
    </style>
    <linearGradient id="linear-gradient" x1="54.8" y1="38.04" x2="149.57" y2="132.82" gradientUnits="userSpaceOnUse">
      <stop offset="0" stop-color="#74fdfb"/>
      <stop offset="1" stop-color="#497cfe"/>
    </linearGradient>
    <linearGradient id="linear-gradient-2" x1="54.41" y1="38.43" x2="149.19" y2="133.21" gradientUnits="userSpaceOnUse">
      <stop offset="0" stop-color="#74fdfb"/>
      <stop offset="1" stop-color="#497cfe"/>
    </linearGradient>
    <linearGradient id="linear-gradient-3" x1="71.14" y1="21.7" x2="165.92" y2="116.48" gradientUnits="userSpaceOnUse">
      <stop offset="0" stop-color="#74fdfb"/>
      <stop offset="1" stop-color="#497cfe"/>
    </linearGradient>
    <linearGradient id="linear-gradient-4" x1="19.04" y1="73.81" x2="113.81" y2="168.58" gradientUnits="userSpaceOnUse">
      <stop offset="0" stop-color="#74fdfb"/>
      <stop offset="1" stop-color="#497cfe"/>
    </linearGradient>
    <linearGradient id="linear-gradient-5" x1="4.83" y1="88.01" x2="99.61" y2="182.79" gradientUnits="userSpaceOnUse">
      <stop offset="0" stop-color="#74fdfb"/>
      <stop offset="1" stop-color="#497cfe"/>
    </linearGradient>
    <linearGradient id="linear-gradient-6" x1="-18.42" y1="111.26" x2="76.36" y2="206.04" gradientUnits="userSpaceOnUse">
      <stop offset="0" stop-color="#74fdfb"/>
      <stop offset="1" stop-color="#497cfe"/>
    </linearGradient>
    <linearGradient id="linear-gradient-7" x1="268.57" y1="158.1" x2="268.57" y2="54.26" gradientUnits="userSpaceOnUse">
      <stop offset=".16" stop-color="#497cfe"/>
      <stop offset="1" stop-color="#74fdfb"/>
    </linearGradient>
    <linearGradient id="linear-gradient-8" x1="559.6" y1="158.1" x2="559.6" y2="54.26" gradientUnits="userSpaceOnUse">
      <stop offset=".14" stop-color="#497cfe"/>
      <stop offset=".93" stop-color="#74fdfb"/>
    </linearGradient>
    <linearGradient id="linear-gradient-9" x1="364.74" y1="158.1" x2="364.74" y2="54.26" gradientUnits="userSpaceOnUse">
      <stop offset=".14" stop-color="#497cfe"/>
      <stop offset=".95" stop-color="#74fdfb"/>
    </linearGradient>
    <linearGradient id="linear-gradient-10" x1="385.63" y1="158.1" x2="385.63" y2="54.26" gradientUnits="userSpaceOnUse">
      <stop offset=".13" stop-color="#497cfe"/>
      <stop offset=".95" stop-color="#74fdfb"/>
    </linearGradient>
    <linearGradient id="linear-gradient-11" x1="453.85" y1="158.1" x2="453.85" y2="54.26" gradientUnits="userSpaceOnUse">
      <stop offset=".13" stop-color="#497cfe"/>
      <stop offset=".94" stop-color="#74fdfb"/>
    </linearGradient>
    <linearGradient id="linear-gradient-12" x1="474.74" y1="158.1" x2="474.74" y2="54.26" gradientUnits="userSpaceOnUse">
      <stop offset=".13" stop-color="#497cfe"/>
      <stop offset=".94" stop-color="#74fdfb"/>
    </linearGradient>
  </defs>
  <g>
    <path class="cls-10" d="m54.77,21.33h58.15c40.15,0,72.82,32.67,72.82,72.82s-32.67,72.82-72.82,72.82h-23.88V31.98h-17.49v152.47h41.37c49.79,0,90.3-40.51,90.3-90.3S162.71,3.84,112.92,3.84H37.28v32.85h17.49v-15.37Z"/>
    <rect class="cls-1" x="102.98" y="54.73" width="17.49" height="82.03"/>
    <rect class="cls-9" x="136.44" y="76.78" width="17.49" height="37.94"/>
    <rect class="cls-11" x="37.28" y="54.73" width="17.49" height="92.13"/>
    <rect class="cls-5" x="3.82" y="77.62" width="17.49" height="36.24"/>
    <rect class="cls-2" x="37.28" y="166.96" width="17.49" height="17.49"/>
    <path class="cls-7" d="m289.76,72.7c-5.5-7.51-15.62-12.43-26.17-12.43-20.54,0-36.73,16.05-36.73,41.07s16.2,41.64,36.59,41.64c12.57,0,21.55-5.78,26.32-13.15v11.85h20.54V34.67h-20.54v38.03Zm-21.11,52.49c-10.84,0-21.11-8.67-21.11-23.85s10.28-23.29,21.11-23.29,21.26,8.39,21.26,23.57-10.12,23.57-21.26,23.57Z"/>
    <polygon class="cls-12" points="586.07 122.44 571.03 61.56 549.63 61.56 534.3 122.59 520.13 61.56 499.59 61.56 523.16 141.68 545.13 141.68 559.75 85.71 574.35 141.68 596.19 141.68 619.61 61.56 600.25 61.56 586.07 122.44"/>
    <path class="cls-8" d="m380.74,63c-3.94-1.5-8.26-2.41-12.9-2.64-.91-.06-1.83-.09-2.75-.09-23.71,0-40.2,16.05-40.2,41.35s15.79,40.23,37.83,41.29c.78.05,1.58.06,2.37.06h2.51v-.09c.08,0,.16,0,.23,0v-16.77h-5.12c-9.21-.8-16.34-7.32-17.29-18.41h58.57c.44-2.61.58-5.2.58-7.81,0-18.01-9.31-31.41-23.83-36.89Zm-35.17,31.11c1.59-10.99,9.26-17.21,18.94-17.21,1.14,0,2.25.08,3.33.23,5.47.78,10.1,3.5,12.9,7.68,1.73,2.56,2.78,5.7,2.87,9.29h-38.04Z"/>
    <rect class="cls-4" x="377.45" y="126.11" width="16.35" height="16.87"/>
    <path class="cls-3" d="m469.86,63c-3.94-1.5-8.26-2.41-12.9-2.64-.91-.06-1.83-.09-2.75-.09-23.71,0-40.2,16.05-40.2,41.35s15.79,40.23,37.83,41.29c.78.05,1.58.06,2.37.06h2.51v-.09c.08,0,.16,0,.23,0v-16.77h-5.12c-9.21-.8-16.34-7.32-17.29-18.41h58.57c.44-2.61.58-5.2.58-7.81,0-18.01-9.31-31.41-23.83-36.89Zm-35.17,31.11c1.59-10.99,9.26-17.21,18.94-17.21,1.14,0,2.25.08,3.33.23,5.47.78,10.1,3.5,12.9,7.68,1.73,2.56,2.78,5.7,2.87,9.29h-38.04Z"/>
    <rect class="cls-13" x="466.56" y="126.11" width="16.35" height="16.87"/>
  </g>
  <rect class="cls-6" width="624.69" height="188.55"/>
</svg>